<svg width="43" height="43" viewBox="0 0 43 43" fill="none" xmlns="http://www.w3.org/2000/svg">
<g clip-path="url(#clip0_106_2)">
<rect width="42.52" height="42.52" fill="white"/>
<path d="M22.2295 25.7701C22.2295 25.7701 22.1395 25.7601 22.0995 25.7701C21.5995 26.0001 21.0895 26.2401 20.5895 26.4701C20.5495 26.4901 20.5195 26.5601 20.5095 26.6001C20.5095 26.8401 21.1695 27.3101 21.3895 27.2001C22.0795 26.8601 22.9095 26.8601 23.5095 26.3301C23.5395 26.3001 23.6395 26.3501 23.6995 26.3401C23.7995 26.3201 23.8995 26.2801 23.9995 26.2501C23.9595 26.1501 23.9495 26.0301 23.8795 25.9501C23.7295 25.7401 23.5595 25.5501 23.3795 25.3601C23.3295 25.3001 23.2195 25.3001 23.1395 25.2701C23.1395 25.3601 23.0995 25.4601 23.1295 25.5301C23.1895 25.6501 23.2995 25.7501 23.3695 25.8701C23.3995 25.9201 23.3995 26.0301 23.3695 26.0601C23.3395 26.1001 23.2195 26.1101 23.1795 26.0801C22.9295 25.8901 22.5095 26.1801 22.3495 25.7601C22.3495 25.7501 22.2695 25.7601 22.2195 25.7601M16.1995 24.8801C16.4795 24.9401 16.4995 24.7301 16.4395 24.5401C16.3595 24.2901 16.2295 24.0501 16.1195 23.8001C15.8495 23.1701 15.5295 22.5601 15.3495 21.9101C15.2595 21.5901 15.0795 21.4201 14.8495 21.3201C14.6095 21.2101 14.3195 21.2201 14.0495 21.2001C13.9895 21.2001 13.8995 21.2901 13.8695 21.3701C13.8595 21.4001 13.9395 21.5101 13.9995 21.5301C14.1295 21.5801 14.2695 21.5901 14.4095 21.6201C14.4595 21.6301 14.5095 21.6501 14.5495 21.6701C14.5295 21.7101 14.5095 21.7601 14.4795 21.7701C13.9295 21.9001 14.1795 22.1301 14.4095 22.3601C14.4495 22.4001 14.5195 22.4701 14.4995 22.5001C14.2395 23.0001 14.6595 23.3501 14.7895 23.7501C15.0595 24.6101 15.4395 24.8901 16.1995 24.8901M21.9395 25.1101C22.2095 24.9801 22.4495 24.8601 22.6995 24.7601C23.0495 24.6201 22.9595 24.4401 22.7495 24.2701C22.5695 24.1201 22.3795 24.0001 22.1895 23.8701C21.5995 23.4901 21.0195 23.1001 20.4195 22.7401C20.3295 22.6801 20.1595 22.7601 20.0295 22.7701C20.0895 22.8601 20.1295 22.9701 20.2095 23.0301C20.4595 23.2201 20.7295 23.3901 20.9795 23.5701C21.0495 23.6201 21.0895 23.6901 21.1495 23.7401C21.0495 23.7401 20.9295 23.7901 20.8495 23.7401C20.5695 23.6101 20.3095 23.4501 20.0295 23.3101C19.9795 23.2901 19.8995 23.3201 19.8295 23.3301C19.8595 23.3901 19.8695 23.4701 19.9195 23.5101C20.0895 23.6501 20.2695 23.7801 20.4395 23.9101C20.4695 23.9301 20.4995 23.9801 20.4995 24.0101C20.4995 24.0401 20.4395 24.0801 20.4095 24.0701C20.3095 24.0501 20.2095 24.0401 20.1195 23.9901C19.9195 23.8801 19.7595 23.8601 19.6395 24.1101C19.4495 24.4801 19.2095 24.8201 19.0495 25.2001C18.9895 25.3501 19.0495 25.6301 19.1695 25.7501C19.5895 26.1801 20.3695 26.1101 20.7495 25.6401C20.7995 25.5701 20.7695 25.4201 20.7495 25.3101C20.7395 25.2301 20.6795 25.1601 20.6495 25.0801C20.7495 25.0801 20.8595 25.0601 20.9395 25.0901C21.0295 25.1301 21.0795 25.2401 21.1695 25.2801C21.2295 25.3101 21.3495 25.2801 21.3995 25.2401C21.4295 25.2101 21.3995 25.0901 21.3795 25.0201C21.3495 24.9401 21.2995 24.8801 21.2495 24.8101C21.3595 24.8201 21.4795 24.8101 21.5795 24.8501C21.6995 24.9101 21.8095 25.0001 21.9395 25.1001M15.3595 27.4901C15.2495 27.5501 15.1095 27.5701 15.0695 27.6601C14.8495 28.0701 14.6195 28.4901 14.4495 28.9301C14.3795 29.1101 14.3795 29.3801 14.7295 29.3901C15.2495 29.4101 15.7795 29.4301 16.2995 29.4801C17.0895 29.5601 17.8795 29.6501 18.6495 29.7901C18.9195 29.8401 19.1195 29.7801 19.1795 29.5801C19.2195 29.4601 19.0795 29.1901 18.9395 29.1101C18.2295 28.6901 17.5095 28.2701 16.7695 27.9201C16.3395 27.7101 15.8495 27.6401 15.3595 27.4901ZM18.1695 25.3701C18.2695 25.3001 18.4395 25.2301 18.4495 25.1401C18.4595 25.0301 18.3495 24.9001 18.2695 24.7901C18.2295 24.7401 18.1395 24.7401 18.0795 24.7001C17.9895 24.6501 17.8995 24.6001 17.8095 24.5501C17.9095 24.5101 18.0095 24.4701 18.1195 24.4401C18.2395 24.4101 18.3495 24.3801 18.4695 24.3501C18.1895 23.9001 18.6795 24.1401 18.7695 24.0201C18.8795 23.8801 19.0095 23.7501 19.0895 23.5901C19.1895 23.4101 19.2395 23.1901 19.3295 23.0101C19.5295 22.6101 19.4895 22.4501 19.0695 22.2701C18.8595 22.1801 18.6295 22.1701 18.4095 22.1101C17.7195 21.9301 17.0295 21.7301 16.3395 21.5701C16.2195 21.5401 16.0695 21.6501 15.9395 21.6901C16.0295 21.8101 16.0895 21.9801 16.1995 22.0401C16.3595 22.1201 16.5595 22.1101 16.7395 22.1501C16.9595 22.1901 17.1695 22.2301 17.3895 22.2801C17.1495 22.3201 16.9195 22.3701 16.6795 22.4201C16.6495 22.4201 16.6195 22.4201 16.5895 22.4201C16.4595 22.4801 16.3295 22.5401 16.1995 22.6001C16.3195 22.6301 16.4295 22.6601 16.5495 22.6801C16.6095 22.6901 16.6695 22.6701 16.7195 22.6801C16.8595 22.7301 16.9895 22.7901 17.1295 22.8501C17.0095 22.8801 16.8995 22.9101 16.7795 22.9401C16.6995 22.9601 16.5995 22.9801 16.5395 23.0301C16.4995 23.0601 16.5095 23.1501 16.4995 23.2201C16.9695 23.2701 16.9295 23.5001 16.7095 23.7901C16.6995 23.8101 16.7295 23.8701 16.7495 23.9101C16.8495 24.1601 16.9395 24.4201 17.0495 24.6701C17.2595 25.1101 17.6895 25.2101 18.1595 25.3701M15.2495 26.4201C15.2495 26.4201 15.1895 26.4701 15.1595 26.5001C15.2995 26.6101 15.4295 26.7501 15.5795 26.8101C15.7295 26.8801 15.9195 26.8601 16.0795 26.9001C17.2495 27.1801 18.2795 27.7501 19.2595 28.4301C19.5195 28.6101 19.8195 28.7001 20.0795 28.4001C20.1795 28.2901 20.3495 28.2101 20.3995 28.0801C20.4495 27.9401 20.4595 27.6901 20.3795 27.6101C19.0195 26.3901 17.4195 25.6901 15.6095 25.5101C15.5195 25.5101 15.3395 25.6101 15.3195 25.6901C15.2595 25.9201 15.2595 26.1701 15.2395 26.4201M13.0295 31.0501C13.7295 31.0301 14.3595 31.0901 14.8195 31.5101C15.3795 32.0201 15.8595 32.6201 16.3695 33.1901C16.8095 33.6901 17.2395 34.2001 17.6795 34.7001C17.9195 34.9601 18.4095 34.9001 18.4695 34.6301C18.5895 34.1201 18.0295 33.0101 17.5295 32.8101C16.5995 32.4501 15.9495 31.8701 15.8095 30.8001C15.7295 30.1401 15.4595 30.0001 14.7695 30.1201C14.7095 30.1201 14.6395 30.1201 14.5795 30.1201C14.0895 30.0801 13.5995 30.0501 13.1095 30.0001C12.7695 29.9601 12.5995 30.1401 12.4895 30.4201C12.4395 30.5401 12.3995 30.6601 12.3595 30.7801C12.2895 30.9801 12.1895 31.2001 12.5795 31.0701C12.7395 31.0201 12.9295 31.0701 13.0195 31.0701M11.0095 36.0501C10.6495 36.1101 10.1695 36.1601 9.70945 36.2601C9.61945 36.2801 9.51945 36.4301 9.50945 36.5301C9.44945 36.9101 9.95945 37.8901 10.3095 38.0501C10.4095 38.0901 10.5895 38.0801 10.6695 38.0101C11.0895 37.6201 11.6295 37.6101 12.1295 37.5801C12.7995 37.5401 13.3695 37.8701 13.9495 38.1701C14.5695 38.4901 15.2195 38.7601 15.8695 39.0101C15.9895 39.0601 16.1895 38.9101 16.3495 38.8501C16.2795 38.7401 16.2395 38.6001 16.1495 38.5401C15.4195 38.0301 14.6295 37.6001 13.9695 37.0201C13.1295 36.3001 12.1595 36.1301 11.0195 36.0501M14.6695 19.8401C14.1795 19.6901 13.9795 19.9901 13.8195 20.3601C13.6595 20.7201 13.7495 20.8801 14.1595 20.9201C14.4495 20.9501 14.7395 20.9601 15.0195 21.0201C16.3095 21.2801 17.5995 21.5401 18.8895 21.8401C19.9795 22.0901 21.0095 22.5601 21.9195 23.1901C22.9095 23.8801 23.8395 24.6701 24.7795 25.4201C24.9795 25.5801 25.1395 25.6801 25.3395 25.4601C25.5995 25.1901 25.5995 24.7201 25.3195 24.4501C25.0395 24.1801 24.7595 23.8901 24.4395 23.6801C23.5495 23.0801 22.6595 22.4701 21.7295 21.9401C21.0295 21.5401 20.2795 21.2101 19.5195 20.9201C18.8795 20.6801 18.1895 20.5901 17.5495 20.3501C16.6195 20.0001 15.5995 20.1701 14.6795 19.8401M8.43945 42.3201C8.78945 41.5801 9.13945 40.8501 9.48945 40.1101C9.63945 39.8001 9.80945 39.5001 9.93945 39.1801C9.96945 39.1001 9.93945 38.9101 9.88945 38.8901C9.67945 38.7901 9.67945 38.6301 9.65945 38.4301C9.59945 38.0701 9.51945 37.7001 9.38945 37.3601C9.21945 36.9201 9.11945 36.5101 9.42945 36.0901C9.47945 36.0201 9.47945 35.9001 9.44945 35.8101C9.39945 35.6701 9.22945 35.5201 9.24945 35.4101C9.32945 35.0801 9.46945 34.7701 9.58945 34.4501C9.58945 34.4301 9.66945 34.4001 9.68945 34.4201C9.71945 34.4301 9.73945 34.4901 9.73945 34.5201C9.73945 34.7301 9.73945 34.9301 9.73945 35.1401C9.73945 35.4601 9.89945 35.5601 10.2095 35.5301C11.2495 35.4301 12.2995 35.2501 13.2895 35.7201C13.7095 35.9201 14.0995 36.2101 14.4895 36.4601C15.0395 36.8201 15.5795 37.2001 16.1495 37.5401C16.2695 37.6101 16.5695 37.6001 16.6395 37.5101C16.7295 37.3801 16.7095 37.1501 16.6895 36.9701C16.6895 36.8901 16.5895 36.7901 16.5195 36.7301C15.4895 35.8701 14.4595 35.0001 13.4095 34.1601C13.2195 34.0101 12.9395 33.9101 12.6995 33.9001C11.8895 33.8601 11.0895 33.8701 10.2795 33.8701C10.1995 33.8701 10.1195 33.9401 10.0395 33.9601C9.97945 33.9701 9.91945 33.9501 9.85945 33.9401C9.86945 33.8801 9.85945 33.7901 9.89945 33.7501C10.4095 33.2301 10.5695 32.5301 10.8895 31.9101C10.9795 31.7301 11.0995 31.5001 11.2595 31.4401C11.8595 31.2301 12.0095 30.7101 12.1695 30.2201C12.3195 29.7401 12.6295 29.4801 13.0795 29.3301C13.1395 29.3101 13.1995 29.2601 13.2395 29.2801C13.7795 29.5201 13.8595 29.1201 14.0095 28.7701C14.2295 28.2401 14.5695 27.7501 14.6695 27.2001C14.8795 26.0301 14.8595 24.8701 14.2695 23.7501C13.8295 22.9301 13.5495 22.0201 13.2195 21.1401C13.0995 20.8101 13.4595 19.7101 13.7695 19.6301C14.1595 19.5101 14.5995 19.4801 15.0095 19.5201C15.6595 19.5801 16.3095 19.7101 16.9595 19.8601C18.2395 20.1601 19.5695 20.3101 20.7395 20.9501C21.6895 21.4701 22.6295 22.0201 23.5495 22.6001C24.2295 23.0301 24.8595 23.5301 25.5195 23.9901C26.1195 24.4101 26.1195 24.7401 25.8295 25.4301C25.4995 26.2401 24.8995 26.5501 24.1295 26.7601C23.4695 26.9501 22.8495 27.2501 22.2095 27.4901C21.9195 27.6001 21.6195 27.7301 21.3195 27.7901C20.7995 27.8901 20.5195 28.2801 20.2295 28.6301C19.9895 28.9101 19.8395 29.2701 19.6095 29.5601C19.3395 29.9001 19.6595 29.9101 19.8195 29.9601C20.1995 30.0701 20.6095 30.1101 20.9795 30.2501C21.2195 30.3301 21.4695 30.4901 21.6395 30.6801C22.1195 31.2301 22.3595 31.9001 22.5395 32.6001C22.7395 33.3701 23.0195 34.1201 23.2595 34.8701C23.2795 34.9301 23.3295 34.9901 23.3195 35.0301C23.0795 35.5001 23.4395 35.8801 23.5095 36.3101C23.5595 36.6801 23.6195 37.0501 23.6895 37.4101C23.7095 37.5001 23.7695 37.6101 23.8495 37.6601C25.0595 38.4101 26.3295 39.0501 27.6895 39.5101C28.0895 39.6501 28.4595 39.8801 28.8495 40.0301C29.4195 40.2501 30.0095 40.4301 30.5895 40.6301C31.3295 40.8901 32.0695 41.1501 32.8095 41.4201C33.4395 41.6401 34.0695 41.9001 34.7095 42.0801C34.9395 42.1401 35.2495 41.9401 35.3895 42.3101H29.2295C29.4795 42.0701 29.7395 41.8501 29.9795 41.6001C30.0595 41.5101 30.0995 41.3701 30.1495 41.2601C29.9995 41.2601 29.8295 41.2401 29.6895 41.2901C29.5395 41.3501 29.4195 41.5001 29.2795 41.6001C29.0995 41.7301 28.8995 41.8501 28.7095 41.9701C28.7995 41.7401 28.8995 41.5101 28.9895 41.2801C28.9895 41.2701 29.0095 41.2601 29.0195 41.2501C29.2995 41.0301 29.1495 40.9201 28.9195 40.8101C28.6695 40.6801 28.4795 40.7201 28.2995 40.9101C28.2495 40.9601 28.1495 40.9701 28.0695 40.9901C28.0595 40.9101 28.0095 40.8201 28.0395 40.7601C28.1795 40.5001 28.0095 40.4101 27.8295 40.3401C27.5595 40.2301 27.2795 40.1301 27.0095 40.0301C25.9595 39.6501 24.8895 39.3301 23.9595 38.6801C23.7595 38.5401 23.5895 38.6001 23.4295 38.8301C22.9695 39.5001 22.4795 40.1401 21.9795 40.7901C21.9295 40.8601 21.8095 40.8601 21.7195 40.9001C21.7195 40.8101 21.6895 40.7001 21.7195 40.6301C22.1295 39.8801 22.5695 39.1301 22.9595 38.3701C23.0895 38.1201 23.1695 37.7901 23.1295 37.5101C22.9895 36.5701 22.8095 35.6501 22.6195 34.7201C22.3995 33.6501 22.1295 32.6101 21.4895 31.6801C21.1695 31.2201 20.7195 30.9801 20.2395 30.7901C19.6695 30.5701 19.0795 30.4101 18.4995 30.2201C18.2595 30.1401 18.0295 30.0501 17.8795 30.3701C17.8395 30.4501 17.7795 30.5201 17.7295 30.5901C17.6895 30.4901 17.6395 30.3901 17.5895 30.2901C17.5395 30.1701 17.5095 29.9401 17.4395 29.9301C17.0995 29.8601 16.7495 29.8101 16.4095 29.8301C16.1795 29.8401 16.0095 29.9901 16.1595 30.2901C16.3295 30.6401 16.8995 30.9501 17.2895 30.9001C17.3795 30.8901 17.4795 30.9201 17.5795 30.9301C17.5595 31.0401 17.5795 31.1701 17.5195 31.2501C17.1795 31.7701 17.1695 31.7601 17.7495 32.0501C17.8495 32.1001 17.9495 32.1601 18.0595 32.2001C18.3495 32.3201 18.6395 32.4401 18.9395 32.5301C19.0295 32.5601 19.1595 32.5001 19.2695 32.4701C19.2395 32.6101 19.2195 32.7501 19.1795 32.8901C18.9795 33.6701 18.8995 34.4601 19.0995 35.2501C19.2595 35.8901 19.4795 36.5101 19.6795 37.1301C19.7595 37.3601 19.7495 37.6101 19.5095 37.6801C19.4195 37.7101 19.2495 37.4601 19.1195 37.3301C19.0995 37.3101 19.1195 37.2701 19.0995 37.2501C18.9495 36.6401 18.8095 36.0301 18.6495 35.4201C18.6295 35.3401 18.5395 35.2501 18.4595 35.2301C18.3895 35.2101 18.2495 35.2801 18.2295 35.3401C18.1695 35.5101 18.1695 35.7101 18.1195 35.8801C18.0895 35.9801 18.0095 36.0601 17.9395 36.1401C17.9295 36.1501 17.7995 36.0801 17.7595 36.0201C17.3995 35.5501 17.0695 35.0701 16.6995 34.6201C16.1195 33.9201 15.5295 33.2101 14.8995 32.5501C14.5095 32.1401 13.9995 31.8901 13.3895 31.9201C13.0095 31.9401 12.6195 31.9601 12.2495 31.9201C11.4095 31.8001 11.1495 31.9301 10.8995 32.7101C10.8095 33.0001 10.9895 33.2101 11.2995 33.1501C12.3895 32.9201 13.3895 33.1501 14.2795 33.7801C14.9195 34.2301 15.4895 34.7701 16.0695 35.2901C16.4195 35.6001 16.7195 35.9601 17.0695 36.2801C17.2395 36.4301 17.4595 36.7201 17.6895 36.3201C17.7095 36.2901 17.7595 36.2801 17.7895 36.2601C17.8095 36.3101 17.8595 36.3701 17.8495 36.4001C17.7495 36.5901 17.6595 36.7801 17.5395 36.9501C17.1995 37.4601 16.7795 37.8901 16.7595 38.5901C16.7495 38.9301 16.3695 39.3001 16.0795 39.5701C15.6395 39.9801 15.1995 39.6601 14.7695 39.4401C14.0295 39.0601 14.0295 39.0701 13.6295 39.7601C13.3395 40.2801 13.3695 40.4101 13.8695 40.7501C13.9095 40.7701 13.9295 40.8101 13.9695 40.8401C14.5095 41.2401 15.0595 41.6201 15.7195 41.8101C16.1795 41.9501 16.6195 42.1401 17.0695 42.3001H14.6895C14.3395 42.0401 13.9995 41.7701 13.6495 41.5101C13.3495 41.2901 13.0795 41.2901 12.8495 41.6301C12.6995 41.8501 12.5495 42.0801 12.3995 42.3001H11.8695C11.8695 42.2301 11.8595 42.1401 11.8895 42.0901C12.3795 41.1801 12.8695 40.2701 13.3695 39.3701C13.5995 38.9501 13.5695 38.7701 13.1195 38.5801C12.7595 38.4301 12.3695 38.3301 11.9895 38.2301C11.3695 38.0701 10.9495 38.2301 10.5995 38.7801C10.4695 38.9801 10.3895 39.2101 10.2795 39.4301C9.80945 40.3901 9.34945 41.3501 8.87945 42.3101H8.43945V42.3201Z" fill="#6C0630"/>
<path d="M25.7995 22.11C25.4695 22.64 25.3795 22.62 24.9095 22.21C24.6095 21.95 24.2595 21.74 23.9095 21.53C23.5495 21.32 23.4795 21.11 23.7395 20.81C24.6395 19.8 24.8195 18.56 24.8995 17.28C24.9895 15.84 24.6595 14.47 24.2695 13.11C24.2495 13.03 24.1395 12.98 24.0695 12.92C24.0195 12.99 23.9495 13.05 23.9295 13.12C23.9095 13.23 23.9295 13.35 23.9195 13.47C23.8395 14.49 23.7895 15.52 23.6495 16.54C23.5295 17.4 23.3295 18.25 23.0995 19.1C22.9895 19.53 22.8295 20.01 22.3595 20.19C22.1595 20.27 21.8695 20.26 21.6795 20.17C21.4595 20.06 21.6295 19.84 21.6795 19.65C21.8895 18.86 22.0695 18.07 22.2295 17.27C22.2695 17.1 22.1895 16.9 22.1595 16.72C22.1495 16.64 22.1095 16.56 22.0795 16.48C22.0495 16.57 21.9995 16.66 21.9795 16.75C21.8295 17.73 21.4295 18.62 21.0695 19.54C21.0395 19.62 20.8895 19.65 20.7895 19.7C20.7695 19.6 20.6995 19.49 20.7195 19.4C20.9695 18.23 21.0995 17.04 20.9895 15.85C20.9295 15.2 20.7495 14.55 20.5595 13.93C20.3195 13.19 20.0795 12.44 19.7095 11.76C19.0295 10.51 18.2595 9.30001 17.0895 8.41001C16.0195 7.59001 15.5295 6.48001 15.5495 5.13001C15.5495 4.73001 15.4595 4.32001 15.4795 3.92001C15.5195 3.03001 15.6195 2.14001 15.9195 1.29001C15.9595 1.18001 16.0195 1.08001 16.0895 0.990007C16.1895 0.860007 16.2595 0.800007 16.3995 1.01001C17.1895 2.28001 18.2295 3.32001 19.4395 4.20001C20.8395 5.22001 22.2495 6.21001 23.5995 7.28001C24.7695 8.20001 25.7495 9.30001 26.5795 10.54C27.1595 11.4 27.6095 12.33 27.9295 13.3C28.6095 18.44 26.2795 21.31 25.7895 22.12" fill="#6C0630"/>
<path d="M20.4602 16.92C20.3802 17.49 20.2602 18.22 20.1702 18.97C20.1402 19.21 20.0902 19.42 19.8102 19.41C19.4202 19.4 19.1202 19.12 19.1102 18.79C19.0902 18.39 19.1102 17.97 19.0102 17.58C18.8502 16.96 18.6202 16.36 18.3802 15.77C18.0502 14.94 17.6902 14.12 17.3202 13.3C17.1802 12.99 16.9802 12.7 16.7902 12.42C16.7402 12.35 16.6202 12.32 16.5302 12.27C16.5102 12.38 16.4502 12.5 16.4802 12.59C16.6802 13.21 16.9302 13.82 17.0802 14.45C17.2202 14.99 17.2602 15.55 17.3302 16.11C17.3902 16.61 17.4702 17.11 17.4802 17.61C17.4802 17.93 17.4202 18.27 17.3102 18.57C17.2802 18.66 16.9802 18.72 16.8402 18.69C16.6902 18.65 16.4902 18.49 16.4702 18.36C16.3302 17.41 14.8902 14.72 14.8002 14.54C14.2902 13.52 13.8402 12.48 13.9002 11.31C13.9302 10.79 14.0302 10.28 14.0902 9.77002C14.1802 8.99002 14.2802 8.22002 13.9502 7.46002C13.8102 7.13002 13.7202 6.79002 13.6202 6.45002C13.6002 6.39002 13.6202 6.33002 13.6202 6.27002C13.6902 6.28002 13.7902 6.27002 13.8402 6.31002C14.3002 6.70002 14.7702 7.09002 15.2202 7.51002C15.9602 8.20002 16.6802 8.89002 17.4002 9.60002C18.2502 10.44 18.8902 11.41 19.3802 12.51C19.9902 13.86 20.3202 15.27 20.4402 16.92" fill="#6C0630"/>
<path d="M42.02 0.5H0.5V42.02H42.02V0.5Z" stroke="#9D855A" stroke-miterlimit="10"/>
</g>
<defs>
<clipPath id="clip0_106_2">
<rect width="42.52" height="42.52" fill="white"/>
</clipPath>
</defs>
</svg>
