<svg xmlns="http://www.w3.org/2000/svg" width="212" height="44" viewBox="0 0 212 44" fill="none"><g clip-path="url(#clip0_91_15)"><path d="M57.6539 36.78H54.9139V39.22H57.4639C58.5139 39.22 58.8639 38.65 58.8639 37.93C58.8639 37.25 58.4639 36.78 57.6539 36.78ZM54.9139 43H53.8539V35.86H57.5339C59.1039 35.86 59.9239 36.58 59.9239 37.91C59.9239 39.25 59.1039 40.14 57.6039 40.14H54.9139V43ZM67.4107 40.43V35.86H68.4707V40.3C68.4707 42.22 67.3907 43.18 65.2407 43.18C63.0907 43.18 62.0107 42.22 62.0107 40.3V35.86H63.0707V40.43C63.0707 41.72 63.9307 42.26 65.2407 42.26C66.5507 42.26 67.4107 41.72 67.4107 40.43ZM75.0097 39.73H72.0497V42.08H74.9197C76.0997 42.08 76.4097 41.47 76.4097 40.87C76.4097 40.31 76.0897 39.73 75.0097 39.73ZM74.8797 36.78H72.0497V38.81H74.9397C75.7297 38.81 76.0997 38.38 76.0997 37.81C76.0997 37.16 75.7597 36.78 74.8797 36.78ZM75.2097 43H70.9897V35.86H74.9597C76.4797 35.86 77.1597 36.53 77.1597 37.65C77.1597 38.52 76.7097 38.95 76.1197 39.16V39.18C76.9497 39.37 77.4697 39.9 77.4697 40.94C77.4697 41.95 76.7597 43 75.2097 43ZM85.2129 43H79.8129V35.86H80.8729V42.08H85.2129V43ZM88.2218 43H87.1618V35.86H88.2218V43ZM96.725 40.27H97.785C97.625 41.85 96.245 43.18 94.215 43.18C92.415 43.18 90.465 42.18 90.465 39.41C90.465 37.33 91.765 35.68 94.205 35.68C95.645 35.68 97.595 36.3 97.785 38.43H96.725C96.565 37.43 95.785 36.6 94.285 36.6C92.605 36.6 91.525 37.56 91.525 39.52C91.525 40.87 92.255 42.26 94.225 42.26C95.475 42.26 96.415 41.67 96.725 40.27ZM109.859 37.92H108.799C108.719 37.37 108.389 36.6 106.679 36.6C105.909 36.6 105.019 36.93 105.019 37.77C105.019 38.21 105.309 38.56 106.189 38.71L107.939 39.01C108.499 39.12 110.089 39.37 110.089 40.84C110.089 42.65 108.459 43.18 107.019 43.18C105.409 43.18 103.739 42.61 103.739 40.65H104.799C104.829 41.93 106.009 42.26 107.099 42.26C108.219 42.26 109.029 41.82 109.029 41.05C109.029 40.4 108.529 40.14 107.699 39.99L106.079 39.72C105.229 39.59 103.959 39.24 103.959 37.85C103.959 36.54 104.989 35.68 106.819 35.68C108.259 35.68 109.749 36.2 109.859 37.92ZM117.889 40.27H118.949C118.789 41.85 117.409 43.18 115.379 43.18C113.579 43.18 111.629 42.18 111.629 39.41C111.629 37.33 112.929 35.68 115.369 35.68C116.809 35.68 118.759 36.3 118.949 38.43H117.889C117.729 37.43 116.949 36.6 115.449 36.6C113.769 36.6 112.689 37.56 112.689 39.52C112.689 40.87 113.419 42.26 115.389 42.26C116.639 42.26 117.579 41.67 117.889 40.27ZM128.153 43H127.093V39.64H122.233V43H121.173V35.86H122.233V38.72H127.093V35.86H128.153V43ZM137.179 39.43C137.179 37.54 135.899 36.6 134.269 36.6C132.639 36.6 131.359 37.54 131.359 39.43C131.359 41.32 132.639 42.26 134.269 42.26C135.899 42.26 137.179 41.32 137.179 39.43ZM138.239 39.43C138.239 41.26 137.149 43.18 134.269 43.18C131.389 43.18 130.299 41.26 130.299 39.43C130.299 37.6 131.389 35.68 134.269 35.68C137.149 35.68 138.239 37.6 138.239 39.43ZM146.88 39.43C146.88 37.54 145.6 36.6 143.97 36.6C142.34 36.6 141.06 37.54 141.06 39.43C141.06 41.32 142.34 42.26 143.97 42.26C145.6 42.26 146.88 41.32 146.88 39.43ZM147.94 39.43C147.94 41.26 146.85 43.18 143.97 43.18C141.09 43.18 140 41.26 140 39.43C140 37.6 141.09 35.68 143.97 35.68C146.85 35.68 147.94 37.6 147.94 39.43ZM155.531 43H150.131V35.86H151.191V42.08H155.531V43Z" fill="#6B062F"></path><path d="M16.5188 3.98716C14.5583 3.01809 12.3966 2.54102 9.90683 2.54102H0V26.2309H3.62281C5.68767 26.2309 7.74507 26.2309 9.80992 26.2309H9.84719C12.3444 26.2309 14.5136 25.7688 16.4667 24.8146C18.1886 23.9723 19.6124 22.8317 20.6858 21.4378C22.1096 19.5817 22.8848 17.4348 22.9892 15.0569C23.101 12.5373 22.5867 10.3681 21.4163 8.4225C20.2684 6.51418 18.621 5.02331 16.5188 3.98716ZM17.8159 19.4177C16.5114 21.1918 14.6851 22.3398 12.3817 22.8243C11.6884 22.9734 10.8908 23.0554 9.93664 23.0703C8.35632 23.0926 6.776 23.0926 5.19568 23.0852H3.45882V5.70911H5.49385C7.23072 5.70911 8.97503 5.70911 10.7119 5.73893C12.4562 5.76875 14.1185 6.29801 15.6541 7.31925C17.6146 8.62376 18.8148 10.383 19.2248 12.5597C19.7242 15.206 19.262 17.4497 17.8159 19.4177Z" fill="#6B062F"></path><path d="M122.087 4.43376C118.815 2.30182 115.095 1.6682 111.025 2.57018C108.476 3.12925 106.299 4.35176 104.569 6.20044C102.423 8.48147 101.349 11.2769 101.372 14.512C101.357 16.1744 101.7 17.792 102.393 19.335C103.332 21.4297 104.793 23.1293 106.724 24.3816C108.96 25.8426 111.509 26.5881 114.297 26.5955H114.357C117.495 26.5955 120.291 25.701 122.669 23.9269C124.666 22.436 126.053 20.5202 126.791 18.2168C127.73 15.2724 127.611 12.3726 126.418 9.58471C125.501 7.43786 124.048 5.70846 122.095 4.43376H122.087ZM123.772 14.4002C123.794 16.7111 123.019 18.7387 121.468 20.4382C119.978 22.0707 118.077 23.0473 115.833 23.338C114.007 23.5765 112.367 23.4051 110.816 22.8162C108.729 22.026 107.164 20.7141 106.15 18.9026C104.644 16.2191 104.51 13.4535 105.747 10.688C107.089 7.69131 109.519 5.93209 112.978 5.45501C113.492 5.38046 114.007 5.35065 114.499 5.35065C116.027 5.35065 117.465 5.68609 118.785 6.35698C121.148 7.55713 122.691 9.38345 123.384 11.7987C123.548 12.3801 123.638 12.969 123.735 13.6026C123.757 13.7442 123.735 13.8933 123.757 14.0424V14.4151L123.772 14.4002Z" fill="#6B062F"></path><path d="M196.355 23.0772V15.7645H208.073V12.6337H196.347V5.70114H211.375V2.57031H192.889V26.208H211.83V23.0772H196.355Z" fill="#6B062F"></path><path d="M92.4783 12.6333H78.3001V2.5625H74.8711V26.2077H78.3299V15.8387H92.4857V26.2151H95.9371V2.56995H92.4783V12.6333Z" fill="#6B062F"></path><path d="M49.0569 25.3347L45.0912 16.1062C43.2276 11.7752 41.3641 7.43677 39.5005 3.10579C39.329 2.71071 39.0458 2.52436 38.6134 2.54672C38.0096 2.56908 37.3834 2.56908 36.6827 2.54672C36.2727 2.54672 35.9671 2.71071 35.8031 3.10579C33.3208 8.89037 30.8385 14.6675 28.3488 20.4446L25.8516 26.2441H27.1784C27.7524 26.2441 28.319 26.2441 28.878 26.2441H28.9078C29.2955 26.2441 29.5415 26.0726 29.698 25.7148C30.026 24.9396 30.354 24.1718 30.682 23.3965C31.0994 22.4275 31.5094 21.4509 31.9194 20.4819C31.9418 20.4222 31.9641 20.3999 31.9567 20.3999C31.9567 20.3999 31.9939 20.385 32.0983 20.385C35.7286 20.3924 39.3588 20.3924 42.9891 20.385C43.0711 20.385 43.1009 20.3924 43.1158 20.4446C43.8464 22.1964 44.5992 23.9332 45.3596 25.6776C45.4565 25.8937 45.7174 26.2217 46.0454 26.2292C46.7386 26.2515 47.4244 26.2441 48.1401 26.2441H49.3924L49.1389 25.5657C49.1091 25.4837 49.0868 25.4167 49.0569 25.3421V25.3347ZM41.7517 17.2392H33.3208L37.5176 7.3995L41.7517 17.2392Z" fill="#6B062F"></path><path d="M150.034 2.36133V6.74448C150.034 9.89022 150.034 13.0434 150.034 16.1891C150.034 17.6651 149.78 18.8056 149.214 19.797C148.357 21.3103 147.141 22.3166 145.494 22.8682C144.339 23.2559 143.086 23.3379 141.662 23.1217C139.747 22.8235 138.211 21.9439 137.1 20.5052C136.251 19.402 135.841 18.09 135.841 16.4799C135.841 13.3416 135.841 10.2033 135.841 7.06502V2.36133H132.382V6.36431C132.382 9.92004 132.382 13.4683 132.382 17.0166C132.382 17.6726 132.434 18.2614 132.538 18.8131C133.09 21.7948 134.864 23.9938 137.816 25.3505C139.367 26.0587 141.029 26.4165 142.766 26.4165C143.75 26.4165 144.756 26.3047 145.792 26.0736C148.811 25.4027 151.033 23.7404 152.389 21.1239C153.112 19.73 153.463 18.1422 153.47 16.2637C153.478 13.1254 153.47 9.98712 153.47 6.8563V2.36133H150.026H150.034Z" fill="#6B062F"></path><path d="M57.8163 2.57031H54.3799V26.223H71.2118V23.0698H57.8163V2.57031Z" fill="#6B062F"></path><path d="M186.806 2.57031H183.377V26.2155H186.806V2.57031Z" fill="#6B062F"></path><path d="M177.413 18.9916C177.278 17.8138 176.801 16.815 175.981 16.0397C175.147 15.2421 174.155 14.6085 173.029 14.1538C172.001 13.7363 170.957 13.3487 169.914 12.9611C169.064 12.648 168.221 12.3274 167.379 11.9995L167.148 11.91C166.171 11.5224 165.165 11.1273 164.263 10.6204C163.391 10.121 162.869 9.27116 162.884 8.33937C162.892 7.39267 163.443 6.55778 164.39 6.05088C165.456 5.4769 166.656 5.23836 168.065 5.32781C170.145 5.46199 171.755 6.35651 172.851 8.00392C173.029 8.26482 173.171 8.55554 173.328 8.86117C173.402 9.01026 173.484 9.1668 173.566 9.31589L173.738 9.62897L177.122 8.42137L176.891 7.99647C176.786 7.80265 176.69 7.60884 176.593 7.41503C176.376 6.99013 176.153 6.55778 175.884 6.14779C174.811 4.50038 173.32 3.35986 171.449 2.76352C169.258 2.06281 166.969 1.99572 164.651 2.5697C161.393 3.36732 159.343 5.62598 159.291 8.45118C159.269 9.83024 159.649 10.9708 160.461 11.9324C161.192 12.7896 162.168 13.4754 163.384 13.9674C164.33 14.3476 165.284 14.7054 166.246 15.0632C167.036 15.3614 167.834 15.6521 168.617 15.9652L168.818 16.0397C169.973 16.4944 171.173 16.9715 172.284 17.538C173.656 18.2387 174.155 19.3718 173.708 20.8179C173.432 21.7125 172.776 22.3759 171.643 22.8903C170.555 23.3897 169.295 23.5686 167.677 23.4568C167.111 23.4195 166.574 23.3673 166.082 23.2182C162.496 22.115 160.588 19.7445 160.29 19.4165C159.969 19.0587 159.679 18.6711 159.433 18.2387C158.896 19.4091 158.836 20.7509 159.097 22.0032C159.142 22.2045 159.209 22.3983 159.306 22.5846C159.41 22.7784 160.007 24.0755 162.847 25.5067C163.89 26.0285 165.113 26.3342 166.559 26.4982C167.237 26.5727 167.886 26.61 168.512 26.61C170.562 26.61 172.351 26.2 173.924 25.3726C175.355 24.6197 176.391 23.5462 177.003 22.1895C177.42 21.2727 177.547 20.2589 177.413 19.014V18.9916Z" fill="#6B062F"></path></g><defs><clipPath id="clip0_91_15"><rect width="212" height="44" fill="white"></rect></clipPath></defs></svg>